<?xml version="1.0" encoding="UTF-8"?>
<svg xmlns="http://www.w3.org/2000/svg" width="697" height="274" viewBox="0 0 697 274" preserveAspectRatio="xMidYMid meet" role="img" aria-labelledby="title desc">
  <title id="title">EZ Garage Doors EZ arrow speed mark</title>
  <desc id="desc">Vector trace of only the orange EZ arrow speed mark from the supplied EZ Garage Doors logo. The Garage Doors wordmark, tagline, and background are removed.</desc>
  <path id="ez-orange-arrow-speed-mark" fill="#ff5b14" fill-rule="evenodd" clip-rule="evenodd" d="M 12 122 L 19 122 L 20 123 L 43 123 L 44 124 L 64 124 L 65 125 L 91 125 L 92 126 L 121 126 L 122 127 L 144 127 L 145 128 L 180 128 L 182 130 L 180 134 L 180 137 L 179 138 L 178 144 L 176 146 L 125 147 L 124 148 L 94 148 L 93 149 L 66 149 L 65 150 L 46 150 L 45 151 L 31 151 L 30 152 L 13 152 L 12 153 L 41 153 L 42 154 L 60 154 L 61 155 L 62 154 L 66 154 L 67 155 L 90 155 L 91 156 L 114 156 L 115 157 L 171 158 L 173 160 L 173 163 L 171 167 L 170 173 L 168 175 L 163 175 L 162 176 L 138 176 L 137 177 L 116 177 L 115 178 L 69 179 L 68 180 L 51 180 L 50 181 L 37 181 L 35 182 L 47 182 L 48 183 L 64 183 L 65 184 L 88 184 L 89 185 L 108 185 L 109 186 L 110 185 L 114 185 L 115 186 L 163 187 L 165 189 L 165 192 L 164 193 L 164 196 L 162 200 L 162 203 L 157 207 L 115 208 L 114 209 L 95 209 L 94 210 L 76 210 L 75 211 L 61 211 L 60 212 L 57 212 L 56 211 L 55 212 L 61 212 L 62 213 L 76 213 L 77 214 L 95 214 L 96 215 L 115 215 L 116 216 L 119 215 L 120 216 L 141 216 L 142 217 L 155 217 L 157 219 L 157 221 L 155 225 L 153 236 L 150 240 L 144 240 L 143 241 L 127 241 L 126 242 L 113 242 L 112 243 L 108 242 L 107 243 L 81 244 L 80 245 L 62 245 L 61 246 L 59 246 L 61 247 L 133 248 L 134 249 L 138 249 L 139 248 L 141 248 L 142 249 L 350 249 L 351 250 L 353 249 L 353 246 L 354 245 L 354 242 L 356 238 L 358 227 L 359 226 L 360 220 L 362 216 L 363 209 L 366 202 L 365 201 L 238 201 L 236 199 L 236 196 L 237 195 L 238 188 L 240 184 L 240 181 L 242 177 L 242 174 L 243 173 L 244 167 L 247 164 L 251 164 L 252 165 L 254 165 L 255 164 L 259 164 L 260 165 L 262 164 L 268 164 L 269 165 L 270 164 L 276 164 L 277 165 L 278 164 L 283 164 L 284 165 L 286 164 L 292 164 L 293 165 L 294 164 L 300 164 L 301 165 L 303 164 L 306 164 L 307 165 L 309 165 L 310 164 L 312 164 L 313 165 L 314 164 L 316 165 L 318 165 L 319 164 L 321 165 L 322 164 L 324 165 L 326 165 L 327 164 L 329 165 L 334 165 L 335 164 L 337 164 L 338 165 L 363 165 L 365 161 L 365 157 L 368 150 L 368 147 L 369 146 L 369 143 L 371 139 L 371 136 L 374 129 L 374 126 L 377 119 L 375 118 L 374 119 L 259 119 L 257 117 L 258 116 L 258 113 L 260 109 L 260 106 L 261 105 L 261 102 L 263 98 L 263 95 L 265 91 L 266 84 L 269 81 L 400 81 L 401 75 L 402 74 L 402 71 L 403 70 L 404 64 L 406 60 L 407 53 L 408 52 L 409 46 L 411 42 L 411 39 L 413 35 L 413 31 L 412 30 L 411 31 L 409 31 L 408 30 L 407 31 L 245 31 L 244 30 L 206 30 L 205 31 L 185 31 L 184 32 L 155 32 L 154 33 L 132 33 L 131 34 L 129 34 L 132 34 L 133 35 L 144 35 L 145 36 L 156 36 L 157 37 L 171 37 L 172 38 L 188 38 L 189 39 L 200 39 L 201 40 L 203 40 L 205 42 L 204 43 L 204 46 L 202 50 L 201 56 L 199 58 L 185 58 L 184 59 L 151 59 L 150 60 L 131 60 L 130 61 L 109 61 L 108 62 L 78 63 L 79 64 L 94 64 L 95 65 L 114 65 L 115 66 L 135 66 L 136 67 L 155 67 L 156 68 L 195 69 L 197 71 L 197 72 L 196 73 L 196 76 L 195 77 L 193 85 L 191 87 L 186 87 L 185 88 L 132 89 L 131 90 L 105 90 L 104 91 L 80 91 L 79 92 L 62 92 L 61 93 L 54 92 L 54 93 L 57 93 L 58 94 L 73 94 L 74 95 L 115 96 L 116 97 L 138 97 L 139 98 L 168 98 L 169 99 L 187 99 L 189 101 L 189 103 L 188 104 L 188 107 L 186 111 L 186 114 L 184 116 L 131 117 L 130 118 L 98 118 L 97 119 L 67 119 L 66 120 L 42 120 L 41 121 L 19 121 L 18 122 Z M 687 50 L 681 45 L 674 41 L 671 38 L 667 36 L 664 33 L 657 29 L 654 26 L 650 24 L 647 21 L 646 21 L 640 16 L 637 15 L 632 11 L 631 11 L 631 14 L 630 15 L 630 18 L 629 19 L 629 22 L 628 23 L 627 29 L 625 31 L 491 31 L 490 30 L 478 31 L 477 30 L 439 30 L 437 34 L 437 37 L 435 41 L 434 48 L 433 49 L 432 55 L 430 59 L 430 63 L 429 64 L 428 70 L 427 71 L 427 73 L 425 77 L 425 80 L 424 81 L 540 81 L 542 83 L 525 97 L 524 97 L 513 107 L 512 107 L 508 111 L 507 111 L 503 115 L 502 115 L 494 123 L 493 123 L 489 127 L 488 127 L 466 146 L 462 147 L 462 149 L 460 151 L 459 151 L 455 155 L 454 155 L 447 162 L 446 162 L 442 166 L 441 166 L 436 171 L 435 171 L 430 176 L 429 176 L 424 181 L 423 181 L 388 211 L 387 215 L 386 216 L 385 223 L 383 227 L 382 234 L 380 238 L 378 249 L 563 249 L 564 250 L 566 249 L 581 249 L 582 250 L 583 249 L 586 249 L 587 250 L 589 250 L 590 249 L 597 249 L 598 250 L 606 250 L 608 252 L 605 259 L 605 262 L 603 264 L 605 264 L 608 261 L 611 260 L 618 255 L 623 253 L 625 251 L 630 249 L 632 247 L 637 245 L 639 243 L 644 241 L 651 236 L 658 233 L 660 231 L 673 224 L 675 222 L 676 222 L 676 221 L 662 212 L 658 208 L 651 204 L 647 200 L 643 198 L 640 195 L 636 193 L 623 183 L 622 184 L 622 189 L 620 193 L 619 199 L 617 201 L 613 201 L 612 202 L 610 201 L 606 201 L 605 202 L 601 202 L 600 201 L 598 201 L 597 202 L 593 202 L 592 201 L 590 201 L 589 202 L 586 202 L 585 201 L 582 201 L 581 202 L 577 202 L 576 201 L 574 202 L 571 202 L 570 201 L 558 201 L 557 202 L 555 201 L 494 201 L 492 199 L 510 184 L 511 184 L 528 170 L 533 167 L 537 163 L 542 160 L 551 152 L 552 152 L 564 142 L 565 142 L 568 139 L 569 139 L 572 136 L 573 136 L 576 133 L 581 130 L 590 122 L 591 122 L 594 119 L 595 119 L 598 116 L 599 116 L 602 113 L 603 113 L 606 110 L 607 110 L 610 107 L 611 107 L 614 104 L 615 104 L 618 101 L 623 98 L 635 88 L 643 83 L 647 79 L 648 79 L 659 70 L 663 68 L 666 65 L 667 65 L 670 62 L 671 62 L 674 59 L 675 59 L 678 56 L 679 56 Z"/>
</svg>
