<?xml version="1.0" encoding="UTF-8"?>
<svg xmlns="http://www.w3.org/2000/svg" width="1261" height="351" viewBox="0 0 1261 351" role="img" aria-labelledby="title desc">
  <title id="title">EZ Garage Doors black horizontal logo</title>
  <desc id="desc">One-color black vector version of the supplied EZ Garage Doors logo for documents, invoices, contracts, and low-cost printing.</desc>
  <g id="ez-logo-black-horizontal" fill-rule="evenodd" clip-rule="evenodd">
    <path id="ez-orange-arrow-speed-mark-and-tagline" fill="#000000" d="M 21 131 L 28 131 L 29 132 L 52 132 L 53 133 L 73 133 L 74 134 L 100 134 L 101 135 L 130 135 L 131 136 L 153 136 L 154 137 L 189 137 L 191 139 L 189 143 L 189 146 L 188 147 L 187 153 L 185 155 L 134 156 L 133 157 L 103 157 L 102 158 L 75 158 L 74 159 L 55 159 L 54 160 L 40 160 L 39 161 L 22 161 L 21 162 L 50 162 L 51 163 L 69 163 L 70 164 L 71 163 L 75 163 L 76 164 L 99 164 L 100 165 L 123 165 L 124 166 L 154 166 L 155 167 L 181 167 L 182 168 L 182 172 L 180 176 L 180 179 L 179 180 L 179 182 L 177 184 L 172 184 L 171 185 L 147 185 L 146 186 L 125 186 L 124 187 L 101 187 L 100 188 L 78 188 L 77 189 L 60 189 L 59 190 L 46 190 L 44 191 L 56 191 L 57 192 L 73 192 L 74 193 L 97 193 L 98 194 L 117 194 L 118 195 L 119 194 L 123 194 L 124 195 L 173 196 L 174 197 L 174 201 L 173 202 L 173 205 L 171 209 L 171 212 L 166 216 L 124 217 L 123 218 L 104 218 L 103 219 L 85 219 L 84 220 L 70 220 L 69 221 L 66 221 L 65 220 L 64 221 L 70 221 L 71 222 L 85 222 L 86 223 L 104 223 L 105 224 L 124 224 L 125 225 L 128 224 L 129 225 L 150 225 L 151 226 L 165 226 L 166 227 L 166 230 L 164 234 L 162 245 L 159 249 L 153 249 L 152 250 L 136 250 L 135 251 L 122 251 L 121 252 L 117 251 L 116 252 L 90 253 L 89 254 L 71 254 L 70 255 L 68 255 L 70 256 L 142 257 L 143 258 L 147 258 L 148 257 L 150 257 L 151 258 L 359 258 L 360 259 L 362 258 L 362 255 L 363 254 L 363 251 L 365 247 L 367 236 L 368 235 L 369 229 L 371 225 L 372 218 L 375 211 L 374 210 L 246 210 L 245 209 L 245 205 L 246 204 L 247 197 L 249 193 L 249 190 L 251 186 L 251 183 L 252 182 L 253 176 L 256 173 L 260 173 L 261 174 L 263 174 L 264 173 L 268 173 L 269 174 L 271 173 L 277 173 L 278 174 L 279 173 L 285 173 L 286 174 L 287 173 L 292 173 L 293 174 L 295 173 L 301 173 L 302 174 L 303 173 L 309 173 L 310 174 L 312 173 L 315 173 L 316 174 L 318 174 L 319 173 L 321 173 L 322 174 L 323 173 L 325 174 L 327 174 L 328 173 L 330 174 L 331 173 L 333 174 L 335 174 L 336 173 L 338 174 L 343 174 L 344 173 L 346 173 L 347 174 L 372 174 L 374 170 L 374 166 L 377 159 L 377 156 L 378 155 L 378 152 L 380 148 L 380 145 L 383 138 L 383 135 L 386 128 L 384 127 L 383 128 L 268 128 L 266 126 L 267 125 L 267 122 L 269 118 L 269 115 L 270 114 L 270 111 L 272 107 L 272 104 L 274 100 L 275 93 L 278 90 L 409 90 L 410 84 L 411 83 L 411 80 L 412 79 L 413 73 L 415 69 L 416 62 L 417 61 L 418 55 L 420 51 L 420 48 L 422 44 L 422 40 L 421 39 L 420 40 L 418 40 L 417 39 L 416 40 L 254 40 L 253 39 L 215 39 L 214 40 L 194 40 L 193 41 L 164 41 L 163 42 L 141 42 L 140 43 L 138 43 L 141 43 L 142 44 L 153 44 L 154 45 L 165 45 L 166 46 L 180 46 L 181 47 L 197 47 L 198 48 L 209 48 L 210 49 L 212 49 L 214 51 L 213 52 L 213 55 L 211 59 L 210 65 L 208 67 L 194 67 L 193 68 L 160 68 L 159 69 L 140 69 L 139 70 L 118 70 L 117 71 L 87 72 L 88 73 L 103 73 L 104 74 L 123 74 L 124 75 L 144 75 L 145 76 L 164 76 L 165 77 L 204 78 L 206 80 L 206 81 L 205 82 L 205 85 L 204 86 L 202 94 L 200 96 L 195 96 L 194 97 L 141 98 L 140 99 L 114 99 L 113 100 L 89 100 L 88 101 L 71 101 L 70 102 L 63 101 L 63 102 L 66 102 L 67 103 L 82 103 L 83 104 L 124 105 L 125 106 L 147 106 L 148 107 L 177 107 L 178 108 L 197 108 L 198 109 L 198 112 L 197 113 L 197 116 L 195 120 L 195 123 L 193 125 L 140 126 L 139 127 L 107 127 L 106 128 L 76 128 L 75 129 L 51 129 L 50 130 L 28 130 L 27 131 Z M 696 59 L 690 54 L 683 50 L 680 47 L 676 45 L 673 42 L 666 38 L 663 35 L 659 33 L 656 30 L 655 30 L 649 25 L 646 24 L 641 20 L 640 20 L 640 23 L 639 24 L 639 27 L 638 28 L 638 31 L 637 32 L 636 38 L 634 40 L 500 40 L 499 39 L 487 40 L 486 39 L 448 39 L 446 43 L 446 46 L 444 50 L 443 57 L 442 58 L 441 64 L 439 68 L 439 72 L 438 73 L 437 79 L 436 80 L 436 82 L 434 86 L 434 89 L 433 90 L 550 90 L 551 92 L 534 106 L 533 106 L 522 116 L 521 116 L 517 120 L 516 120 L 512 124 L 511 124 L 503 132 L 502 132 L 498 136 L 497 136 L 475 155 L 472 156 L 469 160 L 468 160 L 464 164 L 463 164 L 456 171 L 455 171 L 451 175 L 450 175 L 445 180 L 444 180 L 439 185 L 438 185 L 433 190 L 432 190 L 397 220 L 396 224 L 395 225 L 394 232 L 392 236 L 391 243 L 389 247 L 387 258 L 572 258 L 573 259 L 575 258 L 590 258 L 591 259 L 592 258 L 595 258 L 596 259 L 598 259 L 599 258 L 606 258 L 607 259 L 616 259 L 617 260 L 615 267 L 614 268 L 614 271 L 612 273 L 614 273 L 617 270 L 620 269 L 627 264 L 632 262 L 634 260 L 639 258 L 641 256 L 646 254 L 648 252 L 653 250 L 660 245 L 667 242 L 669 240 L 682 233 L 684 231 L 685 231 L 685 230 L 671 221 L 667 217 L 660 213 L 656 209 L 652 207 L 649 204 L 645 202 L 632 192 L 631 193 L 631 198 L 629 202 L 628 208 L 626 210 L 622 210 L 621 211 L 619 210 L 615 210 L 614 211 L 610 211 L 609 210 L 607 210 L 606 211 L 602 211 L 601 210 L 599 210 L 598 211 L 595 211 L 594 210 L 591 210 L 590 211 L 586 211 L 585 210 L 583 211 L 580 211 L 579 210 L 567 210 L 566 211 L 564 210 L 502 210 L 501 208 L 519 193 L 520 193 L 537 179 L 542 176 L 546 172 L 551 169 L 560 161 L 561 161 L 573 151 L 574 151 L 577 148 L 578 148 L 581 145 L 582 145 L 585 142 L 590 139 L 599 131 L 600 131 L 603 128 L 604 128 L 607 125 L 608 125 L 611 122 L 612 122 L 615 119 L 616 119 L 619 116 L 620 116 L 623 113 L 624 113 L 627 110 L 632 107 L 644 97 L 652 92 L 656 88 L 657 88 L 668 79 L 672 77 L 675 74 L 676 74 L 679 71 L 680 71 L 683 68 L 684 68 L 687 65 L 688 65 Z M 678 267 L 759 267 L 760 266 L 767 266 L 768 267 L 769 266 L 774 266 L 775 267 L 782 267 L 783 266 L 993 266 L 994 265 L 996 266 L 1010 266 L 1011 265 L 1104 265 L 1105 264 L 1151 264 L 1152 263 L 1164 263 L 1163 262 L 1162 263 L 1160 262 L 1156 263 L 1155 262 L 1132 262 L 1131 261 L 1092 261 L 1091 260 L 1082 261 L 1081 260 L 992 260 L 991 259 L 990 260 L 982 260 L 981 259 L 980 260 L 976 260 L 975 259 L 974 260 L 972 260 L 971 259 L 760 259 L 759 258 L 758 259 L 754 259 L 753 258 L 751 259 L 750 258 L 680 258 L 680 261 L 679 262 L 679 265 Z M 822 301 L 815 304 L 811 307 L 808 312 L 807 318 L 808 319 L 808 322 L 809 324 L 813 328 L 817 330 L 828 330 L 829 329 L 833 328 L 839 323 L 840 319 L 841 318 L 841 309 L 840 307 L 834 302 L 832 302 L 831 301 Z M 646 301 L 644 304 L 644 309 L 643 310 L 642 321 L 641 322 L 641 327 L 640 329 L 654 329 L 655 330 L 656 329 L 662 329 L 666 327 L 669 322 L 668 317 L 666 315 L 669 310 L 669 305 L 667 303 L 663 302 L 662 301 Z M 485 301 L 483 303 L 483 309 L 482 310 L 481 320 L 480 321 L 480 327 L 479 329 L 487 329 L 487 323 L 490 320 L 492 320 L 496 324 L 498 329 L 507 329 L 507 328 L 504 325 L 502 320 L 505 317 L 506 317 L 509 312 L 509 307 L 508 305 L 506 303 L 504 302 L 501 302 L 500 301 Z M 390 301 L 383 305 L 382 307 L 382 313 L 383 315 L 387 317 L 389 317 L 392 319 L 395 319 L 398 322 L 395 325 L 387 324 L 384 322 L 382 322 L 380 324 L 380 326 L 382 328 L 386 329 L 387 330 L 397 330 L 398 329 L 402 328 L 405 325 L 406 323 L 406 318 L 402 314 L 400 313 L 397 313 L 396 312 L 393 312 L 390 309 L 394 306 L 396 307 L 400 307 L 403 309 L 405 309 L 407 306 L 407 304 L 401 301 Z M 622 301 L 617 301 L 614 303 L 612 308 L 610 310 L 609 313 L 607 315 L 606 318 L 604 320 L 603 323 L 601 325 L 599 329 L 606 329 L 611 323 L 620 323 L 622 325 L 623 329 L 630 329 L 631 330 L 630 324 L 629 323 L 629 321 L 628 320 L 628 318 L 627 317 L 627 315 L 626 314 L 626 312 L 625 311 L 625 309 L 624 308 Z M 906 301 L 901 301 L 898 304 L 893 314 L 891 316 L 887 324 L 883 329 L 891 329 L 892 326 L 895 323 L 902 323 L 903 324 L 905 323 L 907 325 L 908 329 L 916 329 L 915 325 L 912 319 L 912 316 L 911 315 L 908 304 Z M 362 301 L 357 301 L 355 303 L 354 306 L 350 311 L 346 319 L 339 329 L 347 329 L 348 326 L 351 323 L 359 323 L 363 325 L 364 329 L 372 329 L 371 325 L 369 322 L 368 316 L 366 313 L 366 310 L 365 309 L 364 304 Z M 522 301 L 522 304 L 521 305 L 521 310 L 520 311 L 520 317 L 519 318 L 518 329 L 541 329 L 541 323 L 538 323 L 537 324 L 528 324 L 526 322 L 526 320 L 528 318 L 541 318 L 541 313 L 530 313 L 528 311 L 528 309 L 530 307 L 544 307 L 545 302 L 541 302 L 540 301 L 525 302 L 524 301 Z M 714 301 L 713 302 L 713 307 L 712 308 L 712 313 L 711 314 L 710 325 L 708 329 L 730 329 L 731 330 L 733 327 L 733 324 L 719 324 L 717 322 L 717 320 L 719 318 L 732 318 L 733 313 L 721 313 L 719 311 L 719 310 L 722 307 L 734 307 L 735 308 L 736 307 L 736 304 L 737 302 L 736 301 L 734 302 L 717 302 L 716 301 Z M 864 301 L 854 306 L 854 307 L 851 310 L 851 312 L 850 313 L 850 322 L 851 324 L 857 329 L 859 329 L 860 330 L 869 330 L 870 329 L 873 329 L 875 327 L 876 327 L 879 324 L 879 323 L 874 320 L 869 324 L 863 324 L 861 323 L 857 319 L 857 315 L 858 314 L 858 312 L 861 309 L 865 307 L 870 307 L 875 311 L 879 309 L 881 309 L 881 308 L 877 303 L 873 301 Z M 338 301 L 334 301 L 333 302 L 331 301 L 324 301 L 323 302 L 319 302 L 318 301 L 316 302 L 315 301 L 315 303 L 314 304 L 314 309 L 313 310 L 313 314 L 312 315 L 312 322 L 311 323 L 311 327 L 310 329 L 318 329 L 318 323 L 321 319 L 334 319 L 334 313 L 322 313 L 321 312 L 321 309 L 323 307 L 338 307 Z M 443 301 L 435 301 L 434 302 L 432 301 L 430 301 L 429 302 L 426 302 L 425 301 L 424 302 L 422 301 L 417 301 L 415 304 L 415 307 L 422 307 L 424 309 L 423 320 L 422 321 L 422 326 L 421 327 L 421 329 L 429 329 L 429 323 L 430 322 L 430 317 L 431 316 L 431 310 L 434 307 L 443 307 Z M 682 301 L 681 309 L 680 310 L 680 316 L 679 317 L 679 321 L 678 322 L 678 327 L 677 329 L 694 329 L 695 330 L 700 329 L 700 325 L 701 324 L 688 324 L 686 322 L 687 312 L 688 311 L 688 307 L 689 306 L 689 301 Z M 557 301 L 556 302 L 556 305 L 555 306 L 555 311 L 554 312 L 553 322 L 552 323 L 552 328 L 551 329 L 574 329 L 575 324 L 562 324 L 560 322 L 560 320 L 561 319 L 561 314 L 562 313 L 562 307 L 563 306 L 563 303 L 564 302 L 563 301 Z M 929 301 L 928 302 L 928 307 L 927 308 L 926 319 L 925 320 L 925 324 L 924 325 L 924 330 L 925 329 L 946 329 L 946 326 L 947 324 L 934 324 L 932 322 L 933 321 L 933 315 L 934 314 L 935 303 L 936 302 L 935 301 Z M 782 301 L 781 303 L 781 309 L 780 310 L 780 315 L 779 316 L 779 320 L 778 321 L 778 326 L 777 327 L 777 329 L 799 329 L 800 324 L 787 324 L 785 322 L 786 321 L 786 317 L 787 316 L 787 311 L 788 310 L 788 305 L 789 304 L 789 301 Z M 822 307 L 828 307 L 830 308 L 834 313 L 832 320 L 830 322 L 826 324 L 820 324 L 818 323 L 815 319 L 815 315 L 816 314 L 816 312 Z M 594 301 L 591 301 L 590 302 L 588 301 L 587 302 L 587 304 L 586 305 L 586 310 L 585 311 L 585 315 L 584 316 L 584 322 L 583 323 L 583 327 L 582 329 L 590 329 L 590 323 L 591 322 L 591 317 L 592 316 L 592 312 L 593 311 Z M 488 309 L 491 306 L 499 306 L 502 309 L 502 312 L 498 316 L 490 316 L 488 314 Z M 648 319 L 650 317 L 654 317 L 655 316 L 657 317 L 660 317 L 662 319 L 662 323 L 660 325 L 658 325 L 657 326 L 650 326 L 648 324 Z M 649 312 L 650 308 L 652 306 L 660 306 L 663 309 L 662 312 L 660 314 L 651 314 Z M 903 308 L 905 310 L 906 318 L 904 320 L 897 320 L 896 318 L 900 310 L 902 308 Z M 617 308 L 619 309 L 620 313 L 621 314 L 621 317 L 622 318 L 620 320 L 613 320 L 611 318 L 615 310 Z M 358 308 L 359 308 L 361 311 L 362 319 L 361 320 L 354 320 L 352 318 L 353 317 L 353 315 Z M 961 322 L 959 322 L 957 324 L 956 324 L 955 327 L 957 330 L 961 330 L 964 327 L 964 325 Z M 453 322 L 450 324 L 450 329 L 452 330 L 455 330 L 457 328 L 458 325 L 456 323 Z M 746 322 L 743 324 L 743 326 L 742 327 L 743 329 L 745 330 L 748 330 L 750 328 L 750 324 Z"/>
    <path id="garage-doors-wordmark" fill="#000000" d="M 919 48 L 919 53 L 918 54 L 918 59 L 917 60 L 917 65 L 916 66 L 916 72 L 915 73 L 915 78 L 914 79 L 914 84 L 913 85 L 913 90 L 912 91 L 912 97 L 911 98 L 911 102 L 910 103 L 910 109 L 909 110 L 909 114 L 908 115 L 908 121 L 907 122 L 907 126 L 906 127 L 906 133 L 905 134 L 928 134 L 929 135 L 930 133 L 930 126 L 931 125 L 931 120 L 932 119 L 932 113 L 933 112 L 933 109 L 935 107 L 942 107 L 944 109 L 945 111 L 945 113 L 951 124 L 951 126 L 955 134 L 1008 134 L 1013 124 L 1013 122 L 1017 117 L 1044 117 L 1046 119 L 1046 125 L 1047 126 L 1047 130 L 1048 131 L 1048 134 L 1073 134 L 1073 132 L 1072 131 L 1072 127 L 1071 126 L 1071 122 L 1070 121 L 1070 116 L 1069 115 L 1069 111 L 1068 110 L 1068 106 L 1067 105 L 1067 99 L 1066 98 L 1066 94 L 1065 93 L 1065 88 L 1064 87 L 1064 82 L 1063 81 L 1063 76 L 1062 75 L 1062 71 L 1061 70 L 1061 65 L 1060 64 L 1060 59 L 1059 58 L 1059 54 L 1058 53 L 1058 49 L 1057 48 L 1027 48 L 1026 49 L 1011 80 L 1009 82 L 985 130 L 983 132 L 982 132 L 979 129 L 979 127 L 976 123 L 976 121 L 973 117 L 973 115 L 968 105 L 970 103 L 972 103 L 974 101 L 980 98 L 986 91 L 987 89 L 987 87 L 989 84 L 989 82 L 990 81 L 990 67 L 989 66 L 989 63 L 987 59 L 985 57 L 985 56 L 983 54 L 980 53 L 978 51 L 976 51 L 972 49 L 968 49 L 967 48 Z M 878 159 L 877 159 L 873 156 L 871 156 L 868 154 L 865 154 L 864 153 L 858 153 L 857 152 L 855 152 L 854 153 L 852 152 L 849 152 L 848 153 L 840 153 L 839 154 L 836 154 L 835 155 L 833 155 L 825 159 L 819 164 L 818 164 L 814 168 L 814 169 L 810 174 L 806 182 L 806 184 L 804 188 L 804 192 L 803 193 L 803 213 L 804 214 L 804 216 L 805 217 L 805 219 L 807 223 L 813 230 L 814 230 L 817 233 L 821 235 L 823 235 L 824 236 L 827 236 L 828 237 L 832 237 L 833 238 L 849 238 L 850 237 L 855 237 L 856 236 L 859 236 L 860 235 L 862 235 L 868 232 L 870 230 L 871 230 L 879 223 L 879 222 L 882 219 L 886 211 L 886 209 L 887 208 L 887 206 L 889 202 L 889 197 L 890 196 L 890 178 L 889 177 L 889 174 L 886 168 L 884 166 L 884 165 Z M 965 156 L 963 156 L 960 154 L 957 154 L 956 153 L 949 153 L 948 152 L 944 152 L 943 153 L 940 152 L 939 153 L 933 153 L 932 154 L 928 154 L 927 155 L 925 155 L 924 156 L 922 156 L 918 158 L 916 160 L 912 162 L 906 168 L 906 169 L 903 172 L 902 175 L 900 177 L 898 181 L 897 186 L 896 187 L 896 190 L 895 191 L 895 198 L 894 199 L 894 206 L 895 207 L 895 213 L 896 214 L 897 219 L 900 225 L 907 232 L 913 235 L 915 235 L 919 237 L 923 237 L 924 238 L 939 238 L 940 237 L 946 237 L 947 236 L 950 236 L 951 235 L 953 235 L 956 233 L 958 233 L 960 232 L 963 229 L 964 229 L 972 221 L 975 215 L 977 213 L 977 211 L 978 210 L 978 208 L 980 204 L 980 201 L 981 200 L 981 195 L 982 194 L 982 181 L 981 180 L 980 173 L 977 167 L 975 165 L 975 164 L 971 160 L 970 160 Z M 726 154 L 726 159 L 725 160 L 725 166 L 724 167 L 724 172 L 723 173 L 723 178 L 722 179 L 722 185 L 721 186 L 721 192 L 720 193 L 720 198 L 719 199 L 719 205 L 718 206 L 718 211 L 717 212 L 717 218 L 716 219 L 716 224 L 715 225 L 715 230 L 714 231 L 714 236 L 763 236 L 764 235 L 771 234 L 779 230 L 781 228 L 782 228 L 790 220 L 790 219 L 792 217 L 795 211 L 795 209 L 797 205 L 797 202 L 798 201 L 798 196 L 799 195 L 799 181 L 798 180 L 798 176 L 797 175 L 797 173 L 795 169 L 793 167 L 793 166 L 787 160 L 786 160 L 784 158 L 782 158 L 779 156 L 777 156 L 776 155 L 773 155 L 772 154 Z M 995 154 L 995 159 L 994 160 L 994 166 L 993 167 L 993 172 L 992 173 L 992 179 L 991 180 L 991 185 L 990 186 L 990 191 L 989 192 L 989 198 L 988 199 L 988 204 L 987 205 L 987 210 L 986 211 L 986 217 L 985 218 L 985 223 L 984 224 L 984 230 L 983 231 L 983 236 L 1007 236 L 1007 231 L 1008 230 L 1008 225 L 1009 224 L 1009 218 L 1010 217 L 1010 213 L 1012 211 L 1014 211 L 1015 210 L 1019 210 L 1021 212 L 1024 218 L 1024 220 L 1032 236 L 1058 236 L 1054 228 L 1054 226 L 1051 222 L 1051 220 L 1047 212 L 1045 210 L 1045 208 L 1047 206 L 1052 204 L 1059 198 L 1059 197 L 1061 195 L 1063 191 L 1063 189 L 1065 185 L 1065 172 L 1064 171 L 1063 166 L 1060 163 L 1060 162 L 1055 158 L 1051 156 L 1049 156 L 1048 155 L 1045 155 L 1044 154 Z M 854 48 L 847 62 L 845 64 L 844 66 L 844 68 L 842 70 L 810 134 L 836 134 L 842 122 L 842 120 L 844 117 L 871 117 L 873 119 L 873 123 L 874 124 L 874 129 L 875 130 L 875 134 L 901 134 L 900 133 L 900 129 L 899 128 L 899 123 L 898 122 L 898 118 L 897 117 L 897 112 L 896 111 L 896 107 L 895 106 L 895 101 L 894 100 L 894 95 L 893 94 L 893 90 L 892 89 L 892 84 L 891 83 L 891 79 L 890 78 L 890 73 L 889 72 L 889 67 L 888 66 L 888 62 L 887 61 L 887 56 L 886 55 L 886 51 L 885 50 L 885 48 Z M 1146 49 L 1143 49 L 1142 48 L 1137 48 L 1136 47 L 1118 47 L 1117 48 L 1112 48 L 1111 49 L 1108 49 L 1107 50 L 1105 50 L 1101 52 L 1099 54 L 1095 56 L 1087 64 L 1087 65 L 1084 68 L 1080 76 L 1080 78 L 1078 82 L 1078 85 L 1077 86 L 1077 89 L 1076 90 L 1076 109 L 1077 110 L 1077 113 L 1078 114 L 1078 116 L 1081 122 L 1089 130 L 1095 133 L 1097 133 L 1098 134 L 1101 134 L 1102 135 L 1107 135 L 1108 136 L 1124 136 L 1125 135 L 1130 135 L 1131 134 L 1136 133 L 1139 131 L 1141 131 L 1143 129 L 1147 127 L 1154 119 L 1155 117 L 1155 114 L 1156 113 L 1156 109 L 1157 108 L 1157 103 L 1158 102 L 1158 96 L 1159 95 L 1159 89 L 1160 87 L 1123 87 L 1122 88 L 1122 93 L 1121 94 L 1120 103 L 1121 104 L 1122 103 L 1133 103 L 1134 104 L 1134 110 L 1133 111 L 1133 113 L 1130 116 L 1128 117 L 1125 117 L 1124 118 L 1114 118 L 1113 117 L 1111 117 L 1109 116 L 1103 110 L 1103 108 L 1102 107 L 1102 103 L 1101 102 L 1101 94 L 1102 93 L 1102 88 L 1103 87 L 1103 84 L 1105 81 L 1105 79 L 1106 77 L 1109 74 L 1109 73 L 1115 68 L 1119 66 L 1123 66 L 1124 65 L 1126 65 L 1127 66 L 1131 66 L 1135 68 L 1137 70 L 1137 72 L 1139 76 L 1141 76 L 1142 75 L 1146 75 L 1147 74 L 1154 74 L 1155 73 L 1160 73 L 1161 72 L 1160 63 L 1157 57 L 1153 53 L 1152 53 L 1150 51 Z M 804 50 L 802 50 L 798 48 L 793 48 L 792 47 L 775 47 L 774 48 L 770 48 L 769 49 L 766 49 L 765 50 L 763 50 L 755 54 L 746 61 L 746 62 L 743 65 L 743 66 L 741 68 L 741 69 L 739 71 L 737 75 L 737 77 L 736 78 L 736 80 L 734 84 L 734 87 L 733 88 L 733 95 L 732 96 L 732 106 L 733 107 L 733 111 L 736 117 L 736 119 L 742 127 L 743 127 L 746 130 L 752 133 L 757 134 L 758 135 L 763 135 L 764 136 L 781 136 L 782 135 L 787 135 L 788 134 L 793 133 L 796 131 L 798 131 L 808 123 L 808 122 L 810 120 L 812 116 L 812 113 L 813 112 L 813 108 L 814 107 L 814 102 L 815 101 L 815 95 L 816 94 L 816 88 L 817 87 L 780 87 L 779 88 L 779 93 L 778 94 L 778 100 L 777 101 L 777 103 L 789 103 L 791 105 L 791 107 L 790 108 L 790 111 L 789 113 L 786 116 L 784 117 L 781 117 L 780 118 L 772 118 L 771 117 L 768 117 L 764 115 L 760 111 L 759 109 L 759 107 L 758 106 L 758 89 L 759 88 L 759 85 L 760 84 L 761 79 L 764 75 L 764 74 L 771 68 L 775 66 L 779 66 L 780 65 L 787 66 L 791 68 L 794 71 L 795 73 L 795 76 L 797 76 L 798 75 L 802 75 L 803 74 L 809 74 L 810 73 L 818 73 L 818 68 L 817 67 L 817 64 L 816 63 L 816 61 L 815 59 L 812 56 L 811 54 L 810 54 L 808 52 Z M 1177 48 L 1176 49 L 1176 53 L 1175 54 L 1175 60 L 1174 61 L 1174 65 L 1173 66 L 1173 71 L 1172 72 L 1172 79 L 1171 80 L 1171 84 L 1170 85 L 1170 90 L 1169 91 L 1169 97 L 1168 98 L 1168 104 L 1167 105 L 1167 109 L 1166 110 L 1166 115 L 1165 116 L 1165 121 L 1164 122 L 1164 127 L 1163 128 L 1163 132 L 1162 134 L 1226 134 L 1226 129 L 1227 128 L 1227 123 L 1228 122 L 1228 117 L 1223 117 L 1222 116 L 1200 116 L 1199 117 L 1192 117 L 1190 115 L 1190 111 L 1191 110 L 1191 105 L 1192 104 L 1192 100 L 1194 98 L 1227 98 L 1227 93 L 1228 92 L 1228 87 L 1229 86 L 1229 82 L 1228 81 L 1227 82 L 1223 82 L 1222 81 L 1221 82 L 1215 82 L 1214 81 L 1198 81 L 1197 82 L 1195 80 L 1196 78 L 1196 72 L 1197 71 L 1197 68 L 1199 66 L 1236 66 L 1238 62 L 1238 56 L 1239 55 L 1239 50 L 1240 49 L 1239 48 Z M 1138 160 L 1128 155 L 1125 155 L 1124 154 L 1121 154 L 1120 153 L 1112 153 L 1111 152 L 1104 152 L 1103 153 L 1095 153 L 1094 154 L 1091 154 L 1090 155 L 1088 155 L 1082 158 L 1080 160 L 1079 160 L 1076 163 L 1076 164 L 1072 169 L 1072 171 L 1070 175 L 1070 183 L 1071 184 L 1071 187 L 1072 189 L 1077 195 L 1078 195 L 1080 197 L 1086 200 L 1088 200 L 1089 201 L 1091 201 L 1092 202 L 1094 202 L 1098 204 L 1101 204 L 1102 205 L 1104 205 L 1105 206 L 1107 206 L 1109 207 L 1112 210 L 1112 215 L 1110 217 L 1108 218 L 1106 218 L 1105 219 L 1092 219 L 1091 218 L 1088 218 L 1087 217 L 1085 217 L 1084 216 L 1079 215 L 1070 210 L 1070 211 L 1068 213 L 1062 225 L 1062 227 L 1063 227 L 1066 230 L 1072 233 L 1074 233 L 1077 235 L 1080 235 L 1081 236 L 1085 236 L 1086 237 L 1092 237 L 1093 238 L 1104 238 L 1105 237 L 1112 237 L 1113 236 L 1115 236 L 1116 235 L 1121 234 L 1125 231 L 1126 231 L 1132 225 L 1136 217 L 1136 212 L 1137 211 L 1137 207 L 1136 206 L 1136 203 L 1135 202 L 1135 200 L 1133 198 L 1133 197 L 1128 192 L 1120 188 L 1115 187 L 1112 185 L 1109 185 L 1108 184 L 1101 183 L 1097 181 L 1095 179 L 1095 174 L 1097 172 L 1099 171 L 1101 171 L 1102 170 L 1110 170 L 1111 171 L 1115 171 L 1116 172 L 1119 172 L 1120 173 L 1122 173 L 1128 176 L 1130 178 L 1139 162 Z M 857 172 L 863 177 L 865 181 L 865 184 L 866 185 L 866 195 L 865 196 L 865 200 L 864 201 L 864 204 L 861 210 L 854 217 L 852 218 L 850 218 L 849 219 L 838 219 L 834 217 L 830 213 L 828 209 L 828 206 L 827 205 L 827 198 L 828 197 L 828 191 L 829 190 L 830 185 L 832 181 L 839 174 L 843 172 L 845 172 L 846 171 L 854 171 L 855 172 Z M 949 172 L 951 173 L 955 177 L 956 179 L 956 181 L 957 182 L 957 187 L 958 188 L 958 191 L 957 192 L 957 198 L 956 199 L 956 202 L 955 203 L 955 205 L 952 211 L 947 216 L 946 216 L 942 219 L 931 219 L 930 218 L 928 218 L 926 217 L 922 213 L 920 209 L 920 203 L 919 202 L 919 199 L 920 198 L 920 192 L 921 191 L 921 188 L 922 187 L 922 185 L 925 181 L 925 180 L 931 174 L 935 172 L 937 172 L 938 171 L 946 171 L 947 172 Z M 749 172 L 760 172 L 761 173 L 764 173 L 765 174 L 767 174 L 773 180 L 773 182 L 774 183 L 774 187 L 775 188 L 775 193 L 774 194 L 774 199 L 773 200 L 773 203 L 772 204 L 772 206 L 765 215 L 759 218 L 751 218 L 750 219 L 743 219 L 741 217 L 741 213 L 742 212 L 742 206 L 743 205 L 743 199 L 744 198 L 744 193 L 745 192 L 745 187 L 746 186 L 746 180 L 747 179 L 747 174 Z M 940 67 L 942 65 L 949 65 L 950 66 L 959 66 L 961 67 L 964 70 L 965 72 L 965 81 L 964 83 L 960 87 L 956 89 L 951 89 L 950 90 L 939 90 L 937 88 L 937 85 L 938 84 L 938 79 L 939 78 L 939 72 L 940 71 Z M 1016 173 L 1018 171 L 1030 171 L 1031 172 L 1035 172 L 1037 173 L 1040 176 L 1040 186 L 1038 188 L 1038 189 L 1035 192 L 1033 193 L 1031 193 L 1030 194 L 1016 194 L 1014 192 L 1014 186 L 1015 185 L 1015 180 L 1016 179 Z M 1038 72 L 1039 73 L 1039 78 L 1040 79 L 1040 84 L 1041 85 L 1041 90 L 1042 91 L 1042 98 L 1041 99 L 1027 99 L 1025 97 L 1027 94 L 1027 92 L 1033 81 L 1033 79 L 1036 73 Z M 865 73 L 867 77 L 867 82 L 868 83 L 868 88 L 869 89 L 869 94 L 870 95 L 870 97 L 868 99 L 853 99 L 852 97 L 863 76 L 863 74 Z"/>
  </g>
</svg>
